<svg id="msg" xmlns="http://www.w3.org/2000/svg" width="20" height="19.97" viewBox="0 0 20 19.97">
  <g id="Chat">
    <path id="Fill_1" data-name="Fill 1" d="M10.02,0A10,10,0,0,0,0,10a10.56,10.56,0,0,0,1.35,4.99,1.045,1.045,0,0,1,.07.9L.75,18.13a.624.624,0,0,0,.82.78l2.02-.6a1.7,1.7,0,0,1,1.491.36A9.987,9.987,0,1,0,10.02,0" fill="#4842a8"/>
    <path id="Combined_Shape" data-name="Combined Shape" d="M9.22,1.28A1.28,1.28,0,1,1,10.5,2.561,1.276,1.276,0,0,1,9.22,1.28Zm-4.61-.01a1.28,1.28,0,1,1,1.28,1.291A1.292,1.292,0,0,1,4.611,1.27ZM0,1.28a1.28,1.28,0,0,1,2.56,0A1.29,1.29,0,0,1,1.28,2.561,1.289,1.289,0,0,1,0,1.28Z" transform="translate(4.09 8.73)" fill="#fff"/>
  </g>
</svg>
