<svg xmlns="http://www.w3.org/2000/svg" xmlns:xlink="http://www.w3.org/1999/xlink" width="20" height="20" viewBox="0 0 20 20">
  <defs>
    <clipPath id="clip-skype">
      <rect width="20" height="20"/>
    </clipPath>
  </defs>
  <g id="skype" clip-path="url(#clip-skype)">
    <g id="Group_2" data-name="Group 2">
      <rect id="Rectangle_4" data-name="Rectangle 4" width="12" height="14" transform="translate(4 3)" fill="#4842a8" opacity="0.4"/>
      <path id="icons8-skype" d="M5.713,0A5.683,5.683,0,0,0,0,5.638,5.55,5.55,0,0,0,.713,8.35,9.432,9.432,0,0,0,10.1,19.525a9.755,9.755,0,0,0,1.613-.125,5.777,5.777,0,0,0,2.575.6A5.683,5.683,0,0,0,20,14.363a5.492,5.492,0,0,0-.537-2.375,9.259,9.259,0,0,0,.2-1.888A9.506,9.506,0,0,0,10.1.675,9.9,9.9,0,0,0,8.613.788,5.727,5.727,0,0,0,5.713,0Zm4.325,3.75a7.306,7.306,0,0,1,2.137.275,4.725,4.725,0,0,1,1.513.738,3.3,3.3,0,0,1,.9.987,2.177,2.177,0,0,1,.287,1.038,1.213,1.213,0,0,1-.387.862,1.261,1.261,0,0,1-.938.388,1.171,1.171,0,0,1-.787-.238,2.872,2.872,0,0,1-.55-.712A2.988,2.988,0,0,0,11.4,6.075a2.657,2.657,0,0,0-1.537-.337,2.9,2.9,0,0,0-1.588.375,1.036,1.036,0,0,0-.562.875.789.789,0,0,0,.187.525,1.6,1.6,0,0,0,.538.4,4.116,4.116,0,0,0,.737.287c.255.069.689.178,1.275.313.741.158,1.422.323,2.025.512a6.565,6.565,0,0,1,1.563.713,3.114,3.114,0,0,1,1.037,1.075,3.164,3.164,0,0,1,.363,1.587,3.383,3.383,0,0,1-.638,2.013,4.182,4.182,0,0,1-1.862,1.4,7.588,7.588,0,0,1-2.863.487A7.032,7.032,0,0,1,6.8,15.625,4.282,4.282,0,0,1,5.288,14.3,2.825,2.825,0,0,1,4.7,12.675a1.131,1.131,0,0,1,.388-.85,1.35,1.35,0,0,1,.95-.35,1.236,1.236,0,0,1,.812.275,2.047,2.047,0,0,1,.538.775,4.4,4.4,0,0,0,.525.913,2.008,2.008,0,0,0,.762.587,3.2,3.2,0,0,0,1.338.238,3.234,3.234,0,0,0,1.837-.475,1.329,1.329,0,0,0,.688-1.125,1.122,1.122,0,0,0-.363-.863,2.508,2.508,0,0,0-.975-.525c-.417-.127-.977-.267-1.675-.412a13.681,13.681,0,0,1-2.4-.713A3.981,3.981,0,0,1,5.55,9.013a2.77,2.77,0,0,1-.6-1.8,2.928,2.928,0,0,1,.625-1.838A3.849,3.849,0,0,1,7.35,4.163,7.861,7.861,0,0,1,10.038,3.75Z" fill="#4842a8"/>
    </g>
  </g>
</svg>
