<svg xmlns="http://www.w3.org/2000/svg" xmlns:xlink="http://www.w3.org/1999/xlink" width="20" height="20" viewBox="0 0 20 20">
  <defs>
    <clipPath id="clip-whatsapp">
      <rect width="20" height="20"/>
    </clipPath>
  </defs>
  <g id="whatsapp" clip-path="url(#clip-whatsapp)">
    <g id="Group_1" data-name="Group 1">
      <rect id="Rectangle_3" data-name="Rectangle 3" width="13" height="12" transform="translate(3 4)" fill="#4842a8" opacity="0.4"/>
      <path id="icons8-whatsapp" d="M19.086,4.929A9.993,9.993,0,0,0,3.356,16.985l-1.3,4.305a.551.551,0,0,0,.67.691l4.506-1.208a9.986,9.986,0,0,0,4.775,1.217h0a9.872,9.872,0,0,0,9.417-6.544A10.088,10.088,0,0,0,19.086,4.929Zm-2.18,10.631a2.519,2.519,0,0,1-1.686,1.187c-.458.042-.887.207-3-.624a10.241,10.241,0,0,1-4.265-3.769,4.856,4.856,0,0,1-1.02-2.582A2.8,2.8,0,0,1,7.813,7.69a.916.916,0,0,1,.666-.312c.166,0,.333,0,.478.006.178.007.375.016.562.431.222.494.707,1.729.769,1.854a.461.461,0,0,1,.021.437,1.733,1.733,0,0,1-.249.416c-.125.146-.262.325-.374.437s-.255.26-.11.509A7.512,7.512,0,0,0,10.966,13.2a6.86,6.86,0,0,0,2.008,1.24c.25.125.4.1.541-.063s.624-.728.79-.978.333-.208.562-.125,1.457.687,1.706.812.416.187.478.291A2.09,2.09,0,0,1,16.906,15.561Z" transform="translate(-2.009 -2)" fill="#4842a8"/>
    </g>
  </g>
</svg>
