<?xml version="1.0" encoding="iso-8859-1"?>
<!-- Generator: Adobe Illustrator 19.0.0, SVG Export Plug-In . SVG Version: 6.00 Build 0)  -->
<svg version="1.1" id="Capa_1" xmlns="http://www.w3.org/2000/svg" xmlns:xlink="http://www.w3.org/1999/xlink" x="0px" y="0px"
	 viewBox="0 0 511.999 511.999" style="enable-background:new 0 0 511.999 511.999;" xml:space="preserve">
<g transform="matrix(1.25 0 0 -1.25 0 45)">
	<g>
		<path style="fill:#00247D;" d="M364.089-20.89H45.515c-25.133,0-45.511-20.378-45.511-45.511v-204.798
			c0-25.133,20.378-45.511,45.511-45.511h318.574c25.133,0,45.511,20.378,45.511,45.511v204.798
			C409.599-41.267,389.223-20.89,364.089-20.89z"/>
		<g>
			<g>
				<g>
					<path style="fill:#EEEEEE;" d="M216.179-168.8v23.085l-80.781,56.559H75.905L189.647-168.8H216.179z"/>
					<path style="fill:#CF1B2B;" d="M216.179-152.666l-90.691,63.51h-19.831l110.522-77.391V-152.666z"/>
					<path style="fill:#EEEEEE;" d="M92.159-89.156L0-154.759v-14.04h37.91l113.754,79.644L92.159-89.156L92.159-89.156z"/>
					<path style="fill:#CF1B2B;" d="M121.904-89.156L8.355-168.8h3.026h16.623l113.742,79.644H121.904z"/>
					<path style="fill:#EEEEEE;" d="M189.658-20.89L75.916-100.534h59.493l80.77,56.559v23.085H189.658z"/>
					<path style="fill:#CF1B2B;" d="M199.558-20.89L85.827-100.534h19.831L216.18-23.143v2.253H199.558z"/>
				</g>
				<path style="fill:#EEEEEE;" d="M7.545-41.318l106.235-74.36v15.144h37.865L38.651-21.406
					C25.67-23.37,14.494-30.822,7.545-41.318z"/>
				<path style="fill:#CF1B2B;" d="M11.028-36.724l102.753-72.024v8.214h8.123L19.671-28.947
					C16.467-31.163,13.564-33.78,11.028-36.724z"/>
			</g>
			<g>
				<path style="fill:#EEEEEE;" d="M216.179-66.401h-79.644v45.511H79.648v-45.511H0.004v-56.888h79.644V-168.8h56.888v45.511
					h79.644V-66.401z"/>
				<g>
					<path style="fill:#CF1B2B;" d="M125.158-168.8H91.025V-20.89h34.133V-168.8z"/>
					<path style="fill:#CF1B2B;" d="M216.179-111.911H0.004v34.133h216.175V-111.911z"/>
				</g>
			</g>
		</g>
	</g>
	<g>
		<path style="fill:#FFFFFF;" d="M102.409-260.087l-13.903-12.845l1.377,18.887l-18.728,2.856l15.622,10.707l-9.421,16.406
			l18.102-5.541l6.952,17.624l6.952-17.624l18.113,5.541l-9.443-16.406l15.633-10.707l-18.728-2.856l1.388-18.887L102.409-260.087z"
			/>
		<path style="fill:#FFFFFF;" d="M318.012-72.795l-9.09-8.397l0.898,12.356l-12.254,1.866l10.228,6.997l-6.167,10.74l11.833-3.629
			l4.551,11.526l4.551-11.526l11.844,3.629l-6.178-10.74l10.228-6.997l-12.243-1.866l0.898-12.356L318.012-72.795z"/>
		<path style="fill:#FFFFFF;" d="M272.501-141.066l-9.09-8.397l0.898,12.356l-12.254,1.866l10.228,6.997l-6.167,10.74l11.833-3.629
			l4.551,11.537l4.551-11.537l11.844,3.629l-6.178-10.74l10.228-6.997l-12.243-1.866l0.898-12.356L272.501-141.066z"/>
		<path style="fill:#FFFFFF;" d="M374.9-118.311l-9.09-8.397l0.898,12.356l-12.254,1.866l10.228,6.997l-6.167,10.74l11.833-3.629
			l4.551,11.537l4.551-11.537l11.844,3.629l-6.178-10.74l10.228-6.997l-12.243-1.866l0.898-12.356L374.9-118.311z"/>
		<path style="fill:#FFFFFF;" d="M318.012-277.598l-9.09-8.397l0.898,12.356l-12.254,1.866l10.228,6.997l-6.167,10.74l11.833-3.629
			l4.551,11.537l4.551-11.537l11.844,3.629l-6.178-10.74l10.228-6.997l-12.243-1.866l0.898-12.356L318.012-277.598z"/>
		<path style="fill:#FFFFFF;" d="M352.711-146.044l3.345-6.781l7.475-1.081l-5.404-5.268l1.274-7.452l-6.69,3.515l-6.69-3.515
			l1.274,7.452l-5.404,5.268l7.475,1.081L352.711-146.044z"/>
	</g>
</g>
<g>
</g>
<g>
</g>
<g>
</g>
<g>
</g>
<g>
</g>
<g>
</g>
<g>
</g>
<g>
</g>
<g>
</g>
<g>
</g>
<g>
</g>
<g>
</g>
<g>
</g>
<g>
</g>
<g>
</g>
</svg>
