<?xml version="1.0" encoding="UTF-8"?>
<!-- Generator: Adobe Illustrator 21.1.0, SVG Export Plug-In . SVG Version: 6.00 Build 0)  -->
<svg version="1.1" id="Layer_1" xmlns="http://www.w3.org/2000/svg" xmlns:xlink="http://www.w3.org/1999/xlink" x="0px" y="0px" viewBox="0 0 400 400" style="enable-background:new 0 0 400 400;" xml:space="preserve">
<style type="text/css">
	.st0{fill:#fff;stroke:#fff;stroke-width:3;stroke-linecap:round;stroke-linejoin:round;stroke-miterlimit:10;}
	.st1{fill:none;stroke:#fff;stroke-width:3;stroke-linecap:round;stroke-linejoin:round;stroke-miterlimit:10;}
	.st2{fill:#fff;stroke:#fff;stroke-miterlimit:10;}
	.st3{fill:none;stroke:#fff;stroke-width:3;stroke-miterlimit:10;}
</style>
<g>
	<g>
		<line class="st0" x1="105" y1="20.2" x2="121.4" y2="29.2"/>
	</g>
	<polygon class="st1" points="175.5,65.8 180.1,57.8 189.2,57.8 194.2,65.8 189.4,74 180.2,74  "/>
	<polygon class="st1" points="283.9,36.5 280.8,24.6 293.7,28.9  "/>
	<path class="st1" d="M23.8,120.7c0,0,8.6,6.5,3.8,16.9"/>
	<polygon class="st1" points="104.9,135.8 116.9,127.3 129.1,136.3 124.7,150.7 109.5,150.7  "/>
	<rect x="330" y="121.8" class="st1" width="14.9" height="15.2"/>
	<line class="st1" x1="48.2" y1="206.3" x2="41.8" y2="227.7"/>
	<polygon class="st1" points="117,217 124.9,219.8 119.2,225.1  "/>
	<path class="st1" d="M245.8,221.9c0,0,1.6-20.3,22.7-21.9"/>
	<polyline class="st1" points="81.8,284 85.8,286.3 82.6,291.8 87.5,294.5 85.3,298.8  "/>
	<path class="st1" d="M306.3,265.8c0,0-0.8,3.7,3.5,3.5c4.5-0.2,4.9-9.2-2.1-9.5c-7.7-0.3-10.7,13.7,1.4,14.6   c13.2,1,14.4-22.1-3.1-22.1c-19.5,0-20.1,32.4,4.2,33.8c0,0,11.8,0.2,15.9-5.6"/>
	<polygon class="st1" points="26.2,371.9 28.9,359.4 37.7,373.6  "/>
	<path class="st1" d="M183.9,381.9c0,0,16.6-12.9,32.3,1.3"/>
	<polyline class="st1" points="347.6,377.1 347.6,366.1 360.9,366.1 360.9,354.2 373.2,354.2  "/>
	<circle class="st2" cx="56.2" cy="57.9" r="2.8"/>
	<circle class="st3" cx="374" cy="33.1" r="10.4"/>
	<circle class="st2" cx="361.4" cy="207.4" r="2.8"/>
	<circle class="st2" cx="263.3" cy="99.7" r="2.8"/>
	<circle class="st2" cx="182.9" cy="285" r="2.8"/>
	<rect x="207.2" y="157.6" class="st2" width="5.5" height="5.5"/>
	<rect x="103" y="362.3" class="st2" width="5.5" height="5.5"/>
	<rect x="272.5" y="325.6" class="st2" width="5.5" height="5.5"/>
</g>
</svg>