<svg id="email-icon" xmlns="http://www.w3.org/2000/svg" width="69.857" height="69.581" viewBox="0 0 69.857 69.581">
  <path id="Path_29595" data-name="Path 29595" d="M69.857,31.477V70.511H.015l24.91-19.67L0,31.477,34.929.93Z" transform="translate(0 -0.93)" fill="#eab54e"/>
  <path id="Path_29596" data-name="Path 29596" d="M45.382,49.537h56V95.864h-56Z" transform="translate(-38.645 -42.321)" fill="#eeefee"/>
  <path id="Path_29597" data-name="Path 29597" d="M302.674,226.068l24.91,19.67h.015V206.7Z" transform="translate(-257.742 -176.157)" fill="#f6c863"/>
  <path id="Path_29598" data-name="Path 29598" d="M24.926,226.068.015,245.738H0V206.7Z" transform="translate(0 -176.157)" fill="#f6c863"/>
  <path id="Path_29599" data-name="Path 29599" d="M69.93,356.816H.1l24.909-19.67H45.02Z" transform="translate(-0.088 -287.235)" fill="#eab54e"/>
  <path id="Path_29600" data-name="Path 29600" d="M170.364,129.187a13.356,13.356,0,0,1-6.521,1.464c-6.009,0-11.1-4.4-11.1-11.428,0-7.546,5.239-14.066,13.375-14.066,6.372,0,10.658,4.469,10.658,10.587,0,5.494-3.076,8.717-6.521,8.717-1.464,0-2.82-.989-2.712-3.223H167.4a5.749,5.749,0,0,1-5.164,3.223c-2.126,0-3.956-1.721-3.956-4.614a8.651,8.651,0,0,1,8.619-8.682h.061a9.655,9.655,0,0,1,3.919.767l-1.245,6.631c-.55,2.784-.111,4.065,1.1,4.1,1.868.036,3.956-2.454,3.956-6.7,0-5.313-3.187-9.122-8.864-9.122-5.971,0-10.99,4.725-10.99,12.162,0,6.118,3.994,9.891,9.415,9.891a11.426,11.426,0,0,0,5.532-1.282Zm-2.015-15.824a6.319,6.319,0,0,0-1.832-.256c-3.224,0-5.825,3.041-5.825,6.593,0,1.612.807,2.784,2.418,2.784,2.126,0,4.067-2.712,4.469-4.981Z" transform="translate(-130.068 -89.684)" fill="#575b6d"/>
</svg>
