<svg xmlns="http://www.w3.org/2000/svg" width="78.554" height="56.369" viewBox="0 0 78.554 56.369">
  <g id="qoute" opacity="0.15">
    <path id="Path_74" data-name="Path 74" d="M31.882,0H2.3A2.3,2.3,0,0,0,0,2.3V31.882a2.3,2.3,0,0,0,2.3,2.3H14.79V54.068a2.3,2.3,0,0,0,2.3,2.3h7.4A2.3,2.3,0,0,0,26.67,54.8l7.4-22.186a2.29,2.29,0,0,0,.119-.728V2.3a2.3,2.3,0,0,0-2.3-2.3Zm0,0" fill="#4842a8"/>
    <path id="Path_75" data-name="Path 75" d="M321.081,0H291.5a2.3,2.3,0,0,0-2.3,2.3V31.882a2.3,2.3,0,0,0,2.3,2.3H303.99V54.068a2.3,2.3,0,0,0,2.3,2.3h7.395a2.3,2.3,0,0,0,2.183-1.574l7.4-22.186a2.307,2.307,0,0,0,.118-.728V2.3a2.3,2.3,0,0,0-2.3-2.3Zm0,0" transform="translate(-244.828)" fill="#4842a8"/>
  </g>
</svg>
